<svg xmlns="http://www.w3.org/2000/svg" viewBox="0 0 100 100"><style>.st0{fill-rule:evenodd;clip-rule:evenodd}.st1{fill:#d8d5ca}</style><path d="M42.8 88.7s-2.4-5.5-3.3-8.7c-1.2-4.2-1.9-8.2-2.2-12-.6-8.8 1.9-17.3 6.8-23.6 1.3-1.7 2.9-3.3 4-4.4 1.1-1.2 2.2-2.4 3.1-3.7 2-2.8 3.3-5.8 3.8-8.8 1.1-6.1.4-14.5-4.3-20.1 6.1 5.6 9.5 13.1 9.2 20.6-.1 3.8-1.2 7.8-3.2 11.6-1 1.8-2 3.5-3.2 5.1-1.2 1.5-2 2.7-2.8 4.1-3 5.2-3.9 11.4-2.6 17.9.6 2.9 1.6 6 3 9.1 1.3 2.9 3.1 5.9 4.7 8l3.8 4.8-16.8.1z"/><path d="M69.6 66.8c-4 4.5-10.9 5.1-15.1 1.3s-4.1-10.6-.1-15S75 45.6 75 45.6s-1.4 16.7-5.4 21.2zM32.9 35c3.5 3.8 9.3 4.4 12.9 1.1s3.5-9.1.1-12.9c-3.5-3.8-17.6-6.4-17.6-6.4s1.1 14.4 4.6 18.2z"/></svg>