<?xml version="1.0" encoding="UTF-8" standalone="no"?>
<svg width="37px" height="64px" viewBox="0 0 37 64" version="1.1" xmlns="http://www.w3.org/2000/svg" xmlns:xlink="http://www.w3.org/1999/xlink">
    <g id="Page-1" stroke="none" stroke-width="1" fill="none" fill-rule="evenodd">
        <g transform="translate(18.500000, 32.000000) scale(-1, 1) translate(-18.500000, -32.000000) " fill-rule="nonzero" fill="#209CEE">
            <path d="M11.4296275,64 C11.4296275,64 9.52705104,59.6703567 8.81358487,57.1512915 C7.86229665,53.8450185 7.30737852,50.696187 7.06955647,47.704797 C6.59391236,40.7773678 8.57576282,34.0861009 12.4601897,29.1266913 C13.4907519,27.7884379 14.7591362,26.5289053 15.6311504,25.6629766 C16.5031646,24.7183272 17.3751788,23.7736777 18.088645,22.7503075 C19.6741254,20.5461255 20.7046876,18.1845018 21.1010577,15.8228782 C21.9730719,11.0209102 21.4181538,4.40836408 17.6922749,0 C22.52799,4.40836408 25.2233066,10.3124231 24.9854846,16.2164822 C24.9062106,19.2078721 24.0341964,22.3567036 22.448716,25.3480935 C21.6559758,26.7650677 20.8632356,28.103321 19.9119474,29.3628536 C18.9606592,30.5436654 18.3264671,31.4883149 17.6922749,32.5904059 C15.3140544,36.6838868 14.6005882,41.5645756 15.6311504,46.6814268 C16.1067945,48.9643296 16.8995347,51.404674 18.009371,53.8450185 C19.0399332,56.1279213 20.4668656,58.4895449 21.7352498,60.1426814 L24.7476625,63.9212792 L11.4296275,64 L11.4296275,64 Z" id="Shape"></path>
            <path d="M32.7216274,46.0311485 C29.5524625,49.5439518 24.0856531,50.0123256 20.75803,47.0459583 C17.4304069,44.0795911 17.509636,38.7713549 20.6788009,35.3366138 C23.8479657,31.9018727 37,29.4819415 37,29.4819415 C37,29.4819415 35.8907923,42.5183451 32.7216274,46.0311485 Z M3.64453961,21.207338 C6.41755889,24.1737053 11.012848,24.6420791 13.8650964,22.0660233 C16.7173448,19.4899675 16.6381156,14.9623543 13.9443255,11.995987 C11.1713062,9.02961972 0,7 0,7 C0,7 0.871520343,18.2409708 3.64453961,21.207338 Z" id="Shape"></path>
        </g>
    </g>
</svg>